<svg width="24" height="24" viewBox="0 0 24 24" fill="none" xmlns="http://www.w3.org/2000/svg">
<path d="M2.25 4.5V18.75H9.75C10.5762 18.75 11.25 19.4238 11.25 20.25H12.75C12.75 19.4238 13.4238 18.75 14.25 18.75H21.75V4.5H14.25C13.3564 4.5 12.5508 4.89551 12 5.51953C11.4492 4.89551 10.6436 4.5 9.75 4.5H2.25ZM3.75 6H9.75C10.5762 6 11.25 6.67383 11.25 7.5H12.75C12.75 6.67383 13.4238 6 14.25 6H20.25V17.25H14.25C13.3564 17.25 12.5508 17.6455 12 18.2695C11.4492 17.6455 10.6436 17.25 9.75 17.25H3.75V6Z" fill="#C7C7C7"/>
<circle cx="1" cy="1" r="1" transform="matrix(-0.0326158 0.999468 0.999468 0.0326158 5.06525 11)" fill="#C7C7C7"/>
<circle cx="1" cy="1" r="1" transform="matrix(-1 0 0 1 19 11)" fill="#C7C7C7"/>
<circle cx="1" cy="1" r="1" transform="matrix(-1 0 0 1 15 11)" fill="#C7C7C7"/>
<circle cx="1" cy="1" r="1" transform="matrix(-1 0 0 1 11.0652 11)" fill="#C7C7C7"/>
</svg>
