<svg width="24" height="24" viewBox="0 0 24 24" fill="none" xmlns="http://www.w3.org/2000/svg">
<rect x="2.5" y="2.5" width="19" height="19" rx="9.5" fill="#F4F4F4" fill-opacity="0.9"/>
<rect x="2.5" y="2.5" width="19" height="19" rx="9.5" stroke="#C62626"/>
<path fill-rule="evenodd" clip-rule="evenodd" d="M8.42857 7C7.63959 7 7 7.63959 7 8.42857V15.5714C7 16.3604 7.63959 17 8.42857 17C9.21755 17 9.85714 16.3604 9.85714 15.5714V8.42857C9.85714 7.63959 9.21755 7 8.42857 7ZM15.5714 7C14.7825 7 14.1429 7.63959 14.1429 8.42857V15.5714C14.1429 16.3604 14.7825 17 15.5714 17C16.3604 17 17 16.3604 17 15.5714V8.42857C17 7.63959 16.3604 7 15.5714 7Z" fill="#D22F26"/>
</svg>
