<svg width="24" height="24" viewBox="0 0 24 24" fill="none" xmlns="http://www.w3.org/2000/svg">
<path d="M2.60355 12.0254L11.8096 2.81939C11.9169 2.71972 12.0831 2.71972 12.1904 2.81939L21.3964 12.0254C21.4989 12.1279 21.4989 12.294 21.3964 12.3964L21.2071 12.5857C20.6351 12.1239 19.75 12.5238 19.75 13.2891V19C19.75 19.8284 19.0784 20.5 18.25 20.5H15.5C14.6716 20.5 14 19.8284 14 19V15C14 13.8954 13.1046 13 12 13C10.8954 13 10 13.8954 10 15V19C10 19.8284 9.32843 20.5 8.5 20.5H5.75C4.92157 20.5 4.25 19.8284 4.25 19V13.2891C4.25 12.5238 3.36491 12.1239 2.79286 12.5857L2.60355 12.3964C2.5011 12.294 2.5011 12.1279 2.60355 12.0254ZM13.7678 5.13879C12.7915 4.16247 11.2085 4.16248 10.2322 5.13879L5.48223 9.88878C5.01339 10.3576 4.75 10.9935 4.75 11.6566V17.625C4.75 18.9367 5.81332 20 7.125 20C8.43668 20 9.5 18.9367 9.5 17.625V14C9.5 13.1716 10.1716 12.5 11 12.5H13C13.8284 12.5 14.5 13.1716 14.5 14V17.625C14.5 18.9367 15.5633 20 16.875 20C18.1867 20 19.25 18.9367 19.25 17.625V11.6566C19.25 10.9935 18.9866 10.3576 18.5178 9.88878L13.7678 5.13879Z" fill="#D22F26" stroke="#D22F26"/>
</svg>
