<svg width="13" height="13" viewBox="0 0 13 13" fill="none" xmlns="http://www.w3.org/2000/svg">
<path fill-rule="evenodd" clip-rule="evenodd" d="M6.5 1.13043C3.53447 1.13043 1.13043 3.53447 1.13043 6.5C1.13043 9.46553 3.53447 11.8696 6.5 11.8696C9.46553 11.8696 11.8696 9.46553 11.8696 6.5C11.8696 3.53447 9.46553 1.13043 6.5 1.13043ZM0 6.5C0 2.91015 2.91015 0 6.5 0C10.0899 0 13 2.91015 13 6.5C13 10.0899 10.0899 13 6.5 13C2.91015 13 0 10.0899 0 6.5Z" fill="#8C8C8C"/>
<path d="M6.39713 4.77835C6.78733 4.77835 7.10365 4.46203 7.10365 4.07183C7.10365 3.68162 6.78733 3.3653 6.39713 3.3653C6.00693 3.3653 5.69061 3.68162 5.69061 4.07183C5.69061 4.46203 6.00693 4.77835 6.39713 4.77835Z" fill="#8C8C8C"/>
<path fill-rule="evenodd" clip-rule="evenodd" d="M5.12539 9.19722C5.12539 8.88506 5.37845 8.632 5.69061 8.632H7.30883C7.62099 8.632 7.87404 8.88506 7.87404 9.19722C7.87404 9.50938 7.62099 9.76243 7.30883 9.76243H5.69061C5.37845 9.76243 5.12539 9.50938 5.12539 9.19722Z" fill="#8C8C8C"/>
<path fill-rule="evenodd" clip-rule="evenodd" d="M5.12539 5.96022C5.12539 5.64806 5.37845 5.395 5.69061 5.395H6.49943C6.8116 5.395 7.06465 5.64806 7.06465 5.96022V9.19722C7.06465 9.50938 6.8116 9.76243 6.49943 9.76243C6.18727 9.76243 5.93422 9.50938 5.93422 9.19722V6.52543H5.69061C5.37845 6.52543 5.12539 6.27238 5.12539 5.96022Z" fill="#8C8C8C"/>
</svg>
