<svg width="360" height="360" viewBox="0 0 360 360" fill="none" xmlns="http://www.w3.org/2000/svg">
<line y1="179.75" x2="360" y2="179.75" stroke="white" stroke-opacity="0.5" stroke-width="0.5"/>
<line x1="176.75" y1="360" x2="176.75" stroke="white" stroke-opacity="0.4" stroke-width="0.5"/>
<path d="M176.5 62L279.124 239.75H73.876L176.5 62Z" fill="#708090" fill-opacity="0.5"/>
<path d="M176.5 299L73.876 121.25L279.124 121.25L176.5 299Z" fill="#708090" fill-opacity="0.5"/>
<path d="M0.602 43.032H8.414V43.774H4.928V53H4.074V43.774H0.602V43.032ZM13.5598 45.594C14.3438 45.594 14.9458 45.818 15.3938 46.266C15.8278 46.714 16.0518 47.344 16.0518 48.128V53H15.2118V48.282C15.2118 46.994 14.5958 46.336 13.3918 46.336C12.6778 46.336 12.1038 46.574 11.6838 47.022C11.2638 47.484 11.0538 48.156 11.0538 49.038V53H10.2138V43.032H11.0538V47.064C11.5298 46.084 12.3698 45.594 13.5598 45.594ZM24.5339 49.136V49.5H18.8499C18.8499 50.438 19.0739 51.166 19.5219 51.684C19.9699 52.216 20.5859 52.468 21.3699 52.468C22.5459 52.468 23.3159 51.922 23.6659 50.816L24.4359 50.928C24.2399 51.614 23.8619 52.16 23.3299 52.566C22.7839 52.972 22.1259 53.168 21.3559 53.168C20.3199 53.168 19.4939 52.818 18.9059 52.118C18.3039 51.446 18.0099 50.522 18.0099 49.36C18.0099 48.226 18.3039 47.316 18.8919 46.63C19.4799 45.958 20.2779 45.608 21.2999 45.608C22.2799 45.608 23.0779 45.93 23.6659 46.574C24.2399 47.232 24.5339 48.086 24.5339 49.136ZM21.3139 46.308C20.5999 46.308 20.0259 46.546 19.5919 46.994C19.1579 47.442 18.9199 48.072 18.8639 48.884H23.7499C23.6799 48.072 23.4419 47.442 23.0219 46.994C22.6019 46.546 22.0279 46.308 21.3139 46.308ZM28.7595 52.272L31.1815 45.776H32.0495L28.6335 54.526C28.4235 55.03 28.1855 55.38 27.9055 55.576C27.6255 55.772 27.2195 55.856 26.7015 55.856H26.0855V55.142H26.6315C27.0235 55.142 27.3035 55.086 27.4995 54.946C27.6815 54.806 27.8495 54.54 28.0175 54.148L28.4235 53.112L25.3995 45.776H26.3095L28.6335 51.614L28.7595 52.272ZM40.8169 46.434L38.9969 46.406V51.348C38.9969 51.684 39.0669 51.936 39.2069 52.076C39.3469 52.216 39.5709 52.286 39.9069 52.286H40.8029V53H39.6829C38.6609 53 38.1569 52.482 38.1569 51.446V46.406L36.9109 46.434V45.776L38.1569 45.804V43.634H38.9969V45.804L40.8169 45.776V46.434ZM45.7844 45.594C46.5684 45.594 47.1704 45.818 47.6184 46.266C48.0524 46.714 48.2764 47.344 48.2764 48.128V53H47.4364V48.282C47.4364 46.994 46.8204 46.336 45.6164 46.336C44.9024 46.336 44.3284 46.574 43.9084 47.022C43.4884 47.484 43.2784 48.156 43.2784 49.038V53H42.4384V43.032H43.2784V47.064C43.7544 46.084 44.5944 45.594 45.7844 45.594ZM51.5505 44.166H50.6545V43.032H51.5505V44.166ZM51.5225 53H50.6825V45.776H51.5225V53ZM57.2824 45.594C58.0664 45.594 58.6684 45.818 59.1164 46.266C59.5504 46.714 59.7744 47.344 59.7744 48.128V53H58.9344V48.282C58.9344 46.994 58.3184 46.336 57.1144 46.336C56.4004 46.336 55.8264 46.574 55.4064 47.022C54.9864 47.484 54.7764 48.156 54.7764 49.038V53H53.9364V45.776H54.7204V47.176C55.1964 46.126 56.0504 45.594 57.2824 45.594ZM68.3126 53H67.3186L64.5186 49.038L63.0206 50.396V53H62.1806V43.032H63.0206V49.514L67.0386 45.776H68.1166L65.1066 48.52L68.3126 53Z" fill="white"/>
<path d="M300.268 43.032H308.08V43.774H304.594V53H303.74V43.774H300.268V43.032ZM313.226 45.594C314.01 45.594 314.612 45.818 315.06 46.266C315.494 46.714 315.718 47.344 315.718 48.128V53H314.878V48.282C314.878 46.994 314.262 46.336 313.058 46.336C312.344 46.336 311.77 46.574 311.35 47.022C310.93 47.484 310.72 48.156 310.72 49.038V53H309.88V43.032H310.72V47.064C311.196 46.084 312.036 45.594 313.226 45.594ZM324.2 49.136V49.5H318.516C318.516 50.438 318.74 51.166 319.188 51.684C319.636 52.216 320.252 52.468 321.036 52.468C322.212 52.468 322.982 51.922 323.332 50.816L324.102 50.928C323.906 51.614 323.528 52.16 322.996 52.566C322.45 52.972 321.792 53.168 321.022 53.168C319.986 53.168 319.16 52.818 318.572 52.118C317.97 51.446 317.676 50.522 317.676 49.36C317.676 48.226 317.97 47.316 318.558 46.63C319.146 45.958 319.944 45.608 320.966 45.608C321.946 45.608 322.744 45.93 323.332 46.574C323.906 47.232 324.2 48.086 324.2 49.136ZM320.98 46.308C320.266 46.308 319.692 46.546 319.258 46.994C318.824 47.442 318.586 48.072 318.53 48.884H323.416C323.346 48.072 323.108 47.442 322.688 46.994C322.268 46.546 321.694 46.308 320.98 46.308ZM328.426 52.272L330.848 45.776H331.716L328.3 54.526C328.09 55.03 327.852 55.38 327.572 55.576C327.292 55.772 326.886 55.856 326.368 55.856H325.752V55.142H326.298C326.69 55.142 326.97 55.086 327.166 54.946C327.348 54.806 327.516 54.54 327.684 54.148L328.09 53.112L325.066 45.776H325.976L328.3 51.614L328.426 52.272ZM340.567 43.746H339.839C339.419 43.746 339.125 43.844 338.943 44.026C338.761 44.222 338.677 44.53 338.677 44.978V45.804L340.567 45.776V46.434L338.677 46.406V53H337.837V46.406L336.577 46.434V45.776L337.837 45.804V45.09C337.837 44.376 337.991 43.858 338.313 43.522C338.635 43.2 339.139 43.032 339.825 43.032H340.567V43.746ZM347.975 49.136V49.5H342.291C342.291 50.438 342.515 51.166 342.963 51.684C343.411 52.216 344.027 52.468 344.811 52.468C345.987 52.468 346.757 51.922 347.107 50.816L347.877 50.928C347.681 51.614 347.303 52.16 346.771 52.566C346.225 52.972 345.567 53.168 344.797 53.168C343.761 53.168 342.935 52.818 342.347 52.118C341.745 51.446 341.451 50.522 341.451 49.36C341.451 48.226 341.745 47.316 342.333 46.63C342.921 45.958 343.719 45.608 344.741 45.608C345.721 45.608 346.519 45.93 347.107 46.574C347.681 47.232 347.975 48.086 347.975 49.136ZM344.755 46.308C344.041 46.308 343.467 46.546 343.033 46.994C342.599 47.442 342.361 48.072 342.305 48.884H347.191C347.121 48.072 346.883 47.442 346.463 46.994C346.043 46.546 345.469 46.308 344.755 46.308ZM356.001 49.136V49.5H350.317C350.317 50.438 350.541 51.166 350.989 51.684C351.437 52.216 352.053 52.468 352.837 52.468C354.013 52.468 354.783 51.922 355.133 50.816L355.903 50.928C355.707 51.614 355.329 52.16 354.797 52.566C354.251 52.972 353.593 53.168 352.823 53.168C351.787 53.168 350.961 52.818 350.373 52.118C349.771 51.446 349.477 50.522 349.477 49.36C349.477 48.226 349.771 47.316 350.359 46.63C350.947 45.958 351.745 45.608 352.767 45.608C353.747 45.608 354.545 45.93 355.133 46.574C355.707 47.232 356.001 48.086 356.001 49.136ZM352.781 46.308C352.067 46.308 351.493 46.546 351.059 46.994C350.625 47.442 350.387 48.072 350.331 48.884H355.217C355.147 48.072 354.909 47.442 354.489 46.994C354.069 46.546 353.495 46.308 352.781 46.308ZM358.79 53H357.95V43.032H358.79V53Z" fill="white"/>
<path d="M0.602 325.032H8.414V325.774H4.928V335H4.074V325.774H0.602V325.032ZM13.5598 327.594C14.3438 327.594 14.9458 327.818 15.3938 328.266C15.8278 328.714 16.0518 329.344 16.0518 330.128V335H15.2118V330.282C15.2118 328.994 14.5958 328.336 13.3918 328.336C12.6778 328.336 12.1038 328.574 11.6838 329.022C11.2638 329.484 11.0538 330.156 11.0538 331.038V335H10.2138V325.032H11.0538V329.064C11.5298 328.084 12.3698 327.594 13.5598 327.594ZM24.5339 331.136V331.5H18.8499C18.8499 332.438 19.0739 333.166 19.5219 333.684C19.9699 334.216 20.5859 334.468 21.3699 334.468C22.5459 334.468 23.3159 333.922 23.6659 332.816L24.4359 332.928C24.2399 333.614 23.8619 334.16 23.3299 334.566C22.7839 334.972 22.1259 335.168 21.3559 335.168C20.3199 335.168 19.4939 334.818 18.9059 334.118C18.3039 333.446 18.0099 332.522 18.0099 331.36C18.0099 330.226 18.3039 329.316 18.8919 328.63C19.4799 327.958 20.2779 327.608 21.2999 327.608C22.2799 327.608 23.0779 327.93 23.6659 328.574C24.2399 329.232 24.5339 330.086 24.5339 331.136ZM21.3139 328.308C20.5999 328.308 20.0259 328.546 19.5919 328.994C19.1579 329.442 18.9199 330.072 18.8639 330.884H23.7499C23.6799 330.072 23.4419 329.442 23.0219 328.994C22.6019 328.546 22.0279 328.308 21.3139 328.308ZM28.7595 334.272L31.1815 327.776H32.0495L28.6335 336.526C28.4235 337.03 28.1855 337.38 27.9055 337.576C27.6255 337.772 27.2195 337.856 26.7015 337.856H26.0855V337.142H26.6315C27.0235 337.142 27.3035 337.086 27.4995 336.946C27.6815 336.806 27.8495 336.54 28.0175 336.148L28.4235 335.112L25.3995 327.776H26.3095L28.6335 333.614L28.7595 334.272ZM40.1309 335.182C38.2829 335.182 37.2889 334.384 37.1769 332.774H37.9749C38.0869 333.922 38.8149 334.482 40.1589 334.482C40.8169 334.482 41.3209 334.37 41.6709 334.118C42.0209 333.866 42.2029 333.516 42.2029 333.068C42.2029 332.368 41.7129 331.92 40.7609 331.752L39.4449 331.514C38.7449 331.388 38.2129 331.178 37.8769 330.87C37.5409 330.562 37.3729 330.156 37.3729 329.638C37.3729 329.022 37.5969 328.532 38.0589 328.168C38.5209 327.818 39.1649 327.636 39.9909 327.636C40.8029 327.636 41.4609 327.832 41.9649 328.21C42.4689 328.588 42.7489 329.12 42.8329 329.82H42.0069C41.8529 328.812 41.1809 328.308 39.9769 328.308C39.4169 328.308 38.9689 328.42 38.6469 328.644C38.3109 328.868 38.1569 329.176 38.1569 329.568C38.1569 329.904 38.2689 330.17 38.5069 330.366C38.7449 330.562 39.1229 330.688 39.6409 330.772L40.9289 331.024C42.3149 331.304 43.0149 331.962 43.0149 332.998C43.0149 333.684 42.7489 334.216 42.2449 334.608C41.7409 335 41.0269 335.182 40.1309 335.182ZM51.2696 334.356H51.4936V335H51.0316C50.5556 335 50.2196 334.902 50.0096 334.678C49.7856 334.468 49.6736 334.118 49.6596 333.642C49.4356 334.118 49.0716 334.496 48.5956 334.776C48.1056 335.056 47.5456 335.182 46.9016 335.182C46.1316 335.182 45.5296 335 45.1096 334.622C44.6756 334.258 44.4656 333.754 44.4656 333.11C44.4656 331.892 45.2496 331.178 46.8176 330.954L48.6376 330.716C48.9736 330.66 49.2116 330.576 49.3516 330.436C49.4776 330.296 49.5476 330.1 49.5476 329.834V329.652C49.5476 328.742 48.8896 328.28 47.6016 328.28C46.9576 328.28 46.4676 328.406 46.1596 328.644C45.8516 328.896 45.6696 329.288 45.6136 329.82H44.7736C44.8856 328.336 45.8516 327.58 47.6576 327.58C48.5396 327.58 49.2116 327.776 49.6876 328.14C50.1636 328.518 50.4016 329.05 50.4016 329.722V333.362C50.4016 333.726 50.4576 333.992 50.5836 334.132C50.7096 334.286 50.9336 334.356 51.2696 334.356ZM47.0416 334.51C47.7136 334.51 48.2876 334.328 48.7496 333.95C49.2116 333.586 49.4776 333.082 49.5476 332.438V331.108C49.4076 331.206 49.2116 331.276 48.9596 331.304L46.9576 331.598C45.8376 331.766 45.2916 332.256 45.2916 333.082C45.2916 333.53 45.4456 333.88 45.7536 334.132C46.0616 334.384 46.4816 334.51 47.0416 334.51ZM55.2419 334.272L57.6639 327.776H58.5319L55.1159 336.526C54.9059 337.03 54.6679 337.38 54.3879 337.576C54.1079 337.772 53.7019 337.856 53.1839 337.856H52.5679V337.142H53.1139C53.5059 337.142 53.7859 337.086 53.9819 336.946C54.1639 336.806 54.3319 336.54 54.4999 336.148L54.9059 335.112L51.8819 327.776H52.7919L55.1159 333.614L55.2419 334.272Z" fill="white"/>
<path d="M307.5 325.032H315.312V325.774H311.826V335H310.972V325.774H307.5V325.032ZM320.458 327.594C321.242 327.594 321.844 327.818 322.292 328.266C322.726 328.714 322.95 329.344 322.95 330.128V335H322.11V330.282C322.11 328.994 321.494 328.336 320.29 328.336C319.576 328.336 319.002 328.574 318.582 329.022C318.162 329.484 317.952 330.156 317.952 331.038V335H317.112V325.032H317.952V329.064C318.428 328.084 319.268 327.594 320.458 327.594ZM331.432 331.136V331.5H325.748C325.748 332.438 325.972 333.166 326.42 333.684C326.868 334.216 327.484 334.468 328.268 334.468C329.444 334.468 330.214 333.922 330.564 332.816L331.334 332.928C331.138 333.614 330.76 334.16 330.228 334.566C329.682 334.972 329.024 335.168 328.254 335.168C327.218 335.168 326.392 334.818 325.804 334.118C325.202 333.446 324.908 332.522 324.908 331.36C324.908 330.226 325.202 329.316 325.79 328.63C326.378 327.958 327.176 327.608 328.198 327.608C329.178 327.608 329.976 327.93 330.564 328.574C331.138 329.232 331.432 330.086 331.432 331.136ZM328.212 328.308C327.498 328.308 326.924 328.546 326.49 328.994C326.056 329.442 325.818 330.072 325.762 330.884H330.648C330.578 330.072 330.34 329.442 329.92 328.994C329.5 328.546 328.926 328.308 328.212 328.308ZM335.658 334.272L338.08 327.776H338.948L335.532 336.526C335.322 337.03 335.084 337.38 334.804 337.576C334.524 337.772 334.118 337.856 333.6 337.856H332.984V337.142H333.53C333.922 337.142 334.202 337.086 334.398 336.946C334.58 336.806 334.748 336.54 334.916 336.148L335.322 335.112L332.298 327.776H333.208L335.532 333.614L335.658 334.272ZM349.689 329.092V325.032H350.529V335H349.787V333.46C349.563 333.978 349.227 334.384 348.779 334.692C348.331 335 347.813 335.154 347.239 335.154C346.273 335.154 345.517 334.804 344.957 334.076C344.397 333.376 344.117 332.452 344.117 331.304C344.117 330.184 344.397 329.302 344.971 328.63C345.531 327.958 346.273 327.622 347.211 327.622C347.757 327.622 348.247 327.762 348.695 328.014C349.129 328.28 349.465 328.644 349.689 329.092ZM347.309 334.426C348.037 334.426 348.611 334.146 349.059 333.586C349.507 333.026 349.731 332.284 349.731 331.332C349.731 330.394 349.507 329.666 349.073 329.134C348.625 328.616 348.037 328.35 347.309 328.35C346.581 328.35 346.007 328.616 345.587 329.12C345.167 329.652 344.957 330.38 344.957 331.304C344.957 332.256 345.167 333.026 345.587 333.586C346.007 334.146 346.581 334.426 347.309 334.426ZM355.873 335.182C354.851 335.182 354.039 334.832 353.423 334.132C352.793 333.46 352.485 332.536 352.485 331.388C352.485 330.226 352.793 329.302 353.423 328.616C354.039 327.944 354.865 327.594 355.887 327.594C356.895 327.594 357.707 327.944 358.337 328.616C358.953 329.316 359.261 330.226 359.261 331.36C359.261 332.508 358.939 333.432 358.323 334.118C357.693 334.832 356.881 335.182 355.873 335.182ZM355.873 334.468C356.657 334.468 357.273 334.188 357.735 333.628C358.183 333.068 358.421 332.312 358.421 331.36C358.421 330.422 358.183 329.68 357.735 329.134C357.273 328.588 356.657 328.308 355.873 328.308C355.089 328.308 354.459 328.588 354.011 329.148C353.549 329.708 353.325 330.45 353.325 331.388C353.325 332.34 353.549 333.082 354.011 333.642C354.473 334.202 355.089 334.468 355.873 334.468Z" fill="white"/>
</svg>
