<svg width="24" height="24" viewBox="0 0 24 24" fill="none" xmlns="http://www.w3.org/2000/svg">
<path d="M12 3.75C9.075 3.75 6.75 6.075 6.75 9C6.75 10.8281 7.65747 12.4211 9.05273 13.3594C6.38251 14.5105 4.5 17.1702 4.5 20.25H6C6 16.95 8.7 14.25 12 14.25C14.925 14.25 17.25 11.925 17.25 9C17.25 6.075 14.925 3.75 12 3.75ZM12 5.25C14.1 5.25 15.75 6.9 15.75 9C15.75 11.1 14.1 12.75 12 12.75C9.9 12.75 8.25 11.1 8.25 9C8.25 6.9 9.9 5.25 12 5.25ZM18.0747 13.5V15.0747C17.6247 15.1497 17.1753 15.3756 16.8003 15.6006L15.6753 14.4756L14.625 15.5244L15.75 16.6494C15.45 17.0244 15.3006 17.475 15.2256 18H13.5V19.5H15.0747C15.1497 19.95 15.3756 20.4006 15.6006 20.8506L14.4756 21.9756L15.5244 23.0244L16.6494 21.8994C17.0244 22.1244 17.4753 22.3503 17.9253 22.4253V24H19.4253V22.4253C19.8753 22.3503 20.3247 22.1244 20.6997 21.8994L21.8247 23.0244L22.875 21.9756L21.75 20.8506C22.05 20.4756 22.1994 20.025 22.2744 19.5H24V18H22.4253C22.3503 17.55 22.1244 17.0994 21.8994 16.6494L23.0244 15.5244L21.9756 14.4756L20.8506 15.6006C20.4756 15.3756 20.0247 15.1497 19.5747 15.0747V13.5H18.0747ZM18.75 16.5C20.025 16.5 21 17.475 21 18.75C21 20.025 20.025 21 18.75 21C17.475 21 16.5 20.025 16.5 18.75C16.5 17.475 17.475 16.5 18.75 16.5ZM18.75 18C18.6562 18 18.5625 18.0234 18.4746 18.0645C18.3867 18.1055 18.3047 18.1641 18.2344 18.2344C18.1641 18.3047 18.1055 18.3867 18.0645 18.4746C18.0234 18.5625 18 18.6562 18 18.75C18 19.0312 18.2109 19.3125 18.4746 19.4355C18.5625 19.4766 18.6562 19.5 18.75 19.5C19.125 19.5 19.5 19.125 19.5 18.75C19.5 18.375 19.125 18 18.75 18Z" fill="#007BFF"/>
</svg>
