<svg width="16" height="16" viewBox="0 0 16 16" fill="none" xmlns="http://www.w3.org/2000/svg">
<path d="M6.88889 12L6.08888 12.6C6.28361 12.8597 6.59222 13.0087 6.91663 12.9997C7.24104 12.9907 7.54091 12.8248 7.72094 12.5547L6.88889 12ZM4.8 7.54819C4.46863 7.10636 3.84183 7.01682 3.4 7.34819C2.95817 7.67956 2.86863 8.30636 3.2 8.74819L4.8 7.54819ZM13.4987 3.88807C13.8051 3.42855 13.6809 2.80768 13.2214 2.50132C12.7618 2.19497 12.141 2.31915 11.8346 2.77867L13.4987 3.88807ZM7.68889 11.4L4.8 7.54819L3.2 8.74819L6.08888 12.6L7.68889 11.4ZM11.8346 2.77867L6.05683 11.4453L7.72094 12.5547L13.4987 3.88807L11.8346 2.77867Z" fill="#FFD700"/>
</svg>
