<svg width="24" height="24" viewBox="0 0 24 24" fill="none" xmlns="http://www.w3.org/2000/svg">
<path d="M12 3C7.05762 3 3 6.85254 3 11.625C3 14.168 4.17773 16.4268 6 18V21.4688L9.32812 19.8047C10.1748 20.0596 11.0596 20.25 12 20.25C16.9424 20.25 21 16.3975 21 11.625C21 6.85254 16.9424 3 12 3ZM12 4.5C16.1689 4.5 19.5 7.69922 19.5 11.625C19.5 15.5508 16.1689 18.75 12 18.75C11.1035 18.75 10.248 18.5801 9.44531 18.3047L9.14062 18.2109L7.5 19.0312V17.3438L7.21875 17.1094C5.55469 15.7969 4.5 13.8311 4.5 11.625C4.5 7.69922 7.83105 4.5 12 4.5Z" fill="#C7C7C7"/>
<path d="M9.375 8.3125C8.33789 8.3125 7.5 9.15039 7.5 10.1875C7.5 10.583 7.61719 10.9639 7.82812 11.2656C7.82812 11.2686 7.85156 11.2656 7.85156 11.2656L12 16L16.1484 11.2656L16.1719 11.2422C16.3828 10.9404 16.5 10.583 16.5 10.1875C16.5 9.15039 15.6621 8.3125 14.625 8.3125C13.3008 8.3125 12.9844 9.57812 12 9.57812C11.0156 9.57812 10.6992 8.3125 9.375 8.3125Z" fill="#C7C7C7"/>
</svg>
